<svg xmlns="http://www.w3.org/2000/svg" width="50" height="54" viewBox="0 0 50 54">
  <g id="Brain" transform="translate(-13.334 -10)">
    <path id="Контур_152" data-name="Контур 152" d="M63.334,46c0-19.889-9.16-36-20.454-36a6.8,6.8,0,0,0-4.546,1.752A6.806,6.806,0,0,0,33.789,10c-11.3,0-20.455,16.112-20.455,36A18.092,18.092,0,0,0,31.516,64l2.273,0a6.8,6.8,0,0,0,4.546-1.751A6.809,6.809,0,0,0,42.88,64l2.273,0A18.09,18.09,0,0,0,63.334,46Z" transform="translate(0 0)" fill="#4c18aa"/>
    <path id="Контур_153" data-name="Контур 153" d="M38.183,59.415v-40.5a2.266,2.266,0,0,0-2.272-2.252c-3.7,0-7.521,3.008-10.5,8.248a38.215,38.215,0,0,0-3.486,8.629l-.807,3.374A56.647,56.647,0,0,0,20,48.168a13.587,13.587,0,0,0,13.634,13.5l2.275,0A2.263,2.263,0,0,0,38.183,59.415Z" transform="translate(-2.122 -2.167)" fill="#f6f3ff"/>
    <path id="Контур_154" data-name="Контур 154" d="M71.514,48.168A56.6,56.6,0,0,0,70.4,36.918l-.8-3.374a38.265,38.265,0,0,0-3.486-8.629c-2.978-5.24-6.8-8.248-10.5-8.248a2.266,2.266,0,0,0-2.273,2.252v40.5a2.265,2.265,0,0,0,2.273,2.25l2.277,0A13.584,13.584,0,0,0,71.514,48.168Z" transform="translate(-12.727 -2.167)" fill="#f6f3ff"/>
    <path id="Контур_155" data-name="Контур 155" d="M53.334,23.336a5.654,5.654,0,0,0,5.681,5.625h4.546v3.375H59.015a9.058,9.058,0,0,1-5.681-2.026Z" transform="translate(-12.727 -4.334)" fill="#923bfe"/>
    <path id="Контур_156" data-name="Контур 156" d="M71.989,45.043H65.155l0,0v0a3.392,3.392,0,0,0-3.409,3.375v4.5H58.334v-4.5a6.783,6.783,0,0,1,6.817-6.749v0l0,0h6.03Z" transform="translate(-14.318 -10.292)" fill="#923bfe"/>
    <path id="Контур_157" data-name="Контур 157" d="M53.334,62.334H57.88a5.654,5.654,0,0,0,5.681-5.623V53.336h3.409v3.375a9,9,0,0,1-6.818,8.68V70.21H56.743v-4.5H53.334Z" transform="translate(-12.727 -14.084)" fill="#923bfe"/>
    <path id="Контур_158" data-name="Контур 158" d="M41.9,30.31a9.054,9.054,0,0,1-5.682,2.026H31.669V28.961h4.544A5.654,5.654,0,0,0,41.9,23.336Z" transform="translate(-5.834 -4.334)" fill="#923bfe"/>
    <path id="Контур_159" data-name="Контур 159" d="M40.3,65.709H36.894v4.5H33.485V65.391a9,9,0,0,1-6.818-8.68V53.336h3.409v3.375a5.653,5.653,0,0,0,5.682,5.623H40.3Z" transform="translate(-4.242 -14.084)" fill="#923bfe"/>
    <path id="Контур_160" data-name="Контур 160" d="M22.446,41.669h6.028l0,0v0A6.785,6.785,0,0,1,35.3,48.418v4.5H31.888v-4.5a3.392,3.392,0,0,0-3.409-3.375v0l0,0H21.639Z" transform="translate(-2.642 -10.292)" fill="#923bfe"/>
  </g>
</svg>
