<svg xmlns="http://www.w3.org/2000/svg" width="56" height="56" viewBox="0 0 56 56">
  <g id="Tooth_stomatology_implant" data-name="Tooth, stomatology, implant" transform="translate(-10 -10)">
    <path id="Контур_164" data-name="Контур 164" d="M43.333,81.64l9.334-3.112v4.92l-9.334,3.11Z" transform="translate(-10 -20.558)" fill="#923bfe"/>
    <path id="Контур_165" data-name="Контур 165" d="M36.667,68.475l18.666-6.223V67.17L36.667,73.393Z" transform="translate(-8 -15.676)" fill="#923bfe"/>
    <path id="Контур_166" data-name="Контур 166" d="M34.667,37.666l-.042-6.535L33.21,29.757A11.887,11.887,0,0,1,30,21.713c0-4.171,2.538-5.047,4.666-5.047a6.783,6.783,0,0,1,3.145.83,13.5,13.5,0,0,0,12.381,0,6.77,6.77,0,0,1,3.141-.83c2.129,0,4.667.876,4.667,5.047a11.9,11.9,0,0,1-3.172,8.008l-1.5,1.385v6.56Z" transform="translate(-6 -2)" fill="#f6f3ff"/>
    <path id="Контур_167" data-name="Контур 167" d="M51.333,35.666v-6.56l1.5-1.385A11.9,11.9,0,0,0,56,19.713c0-4.171-2.538-5.047-4.667-5.047a6.761,6.761,0,0,0-3.141.83,13.5,13.5,0,0,1-12.381,0,6.787,6.787,0,0,0-3.145-.83c-2.129,0-4.666.876-4.666,5.047a11.881,11.881,0,0,0,3.21,8.043l1.415,1.374.042,6.535H28V31.143a16.592,16.592,0,0,1-4.667-11.43c0-7.1,4.968-9.713,9.334-9.713S38.232,12.334,42,12.334,46.965,10,51.333,10s9.334,2.614,9.334,9.713A16.592,16.592,0,0,1,56,31.144v4.523Z" transform="translate(-4)" fill="#4c18aa"/>
    <path id="Контур_168" data-name="Контур 168" d="M10,46.666v4.668H36.544L24,55.515v4.92l27.3-9.1H66V46.666Z" transform="translate(0 -11)" fill="#923bfe"/>
  </g>
</svg>
