<svg xmlns="http://www.w3.org/2000/svg" xmlns:xlink="http://www.w3.org/1999/xlink" width="40" height="40" viewBox="0 0 40 40">
  <defs>
    <linearGradient id="linear-gradient" y1="0.5" x2="1.193" y2="0.5" gradientUnits="objectBoundingBox">
      <stop offset="0" stop-color="#4b18a9"/>
      <stop offset="1" stop-color="#923bfe"/>
    </linearGradient>
  </defs>
  <g id="Сгруппировать_186" data-name="Сгруппировать 186" transform="translate(-1132 -10536)">
    <circle id="Эллипс_17" data-name="Эллипс 17" cx="20" cy="20" r="20" transform="translate(1132 10536)" fill="url(#linear-gradient)"/>
    <path id="Icon_awesome-instagram" data-name="Icon awesome-instagram" d="M8,6.135a4.1,4.1,0,1,0,4.1,4.1A4.095,4.095,0,0,0,8,6.135ZM8,12.9a2.666,2.666,0,1,1,2.666-2.666A2.671,2.671,0,0,1,8,12.9Zm5.226-6.935a.957.957,0,1,1-.957-.957A.954.954,0,0,1,13.222,5.967Zm2.716.971a4.734,4.734,0,0,0-1.292-3.352,4.765,4.765,0,0,0-3.352-1.292c-1.321-.075-5.279-.075-6.6,0A4.758,4.758,0,0,0,1.343,3.582,4.75,4.75,0,0,0,.051,6.934c-.075,1.321-.075,5.279,0,6.6a4.734,4.734,0,0,0,1.292,3.352,4.771,4.771,0,0,0,3.352,1.292c1.321.075,5.279.075,6.6,0a4.734,4.734,0,0,0,3.352-1.292,4.765,4.765,0,0,0,1.292-3.352c.075-1.321.075-5.276,0-6.6Zm-1.706,8.013a2.7,2.7,0,0,1-1.521,1.521c-1.053.418-3.552.321-4.715.321s-3.666.093-4.715-.321a2.7,2.7,0,0,1-1.521-1.521c-.418-1.053-.321-3.552-.321-4.715s-.093-3.666.321-4.715A2.7,2.7,0,0,1,3.281,4C4.334,3.582,6.833,3.679,8,3.679s3.666-.093,4.715.321a2.7,2.7,0,0,1,1.521,1.521c.418,1.053.321,3.552.321,4.715S14.65,13.9,14.232,14.951Z" transform="translate(1144.005 10545.763)" fill="#fff"/>
  </g>
</svg>
