<svg xmlns="http://www.w3.org/2000/svg" width="24" height="24" viewBox="0 0 24 24">
  <path id="Вычитание_1" data-name="Вычитание 1" d="M19430,21166a12,12,0,1,1,12-12A11.915,11.915,0,0,1,19430,21166Zm-5.52-8.783v1.117h1.6V21160h2.076v-1.664h3.521v-1.115h-3.521v-.912h2.529a5.63,5.63,0,0,0,3.494-.963,3.722,3.722,0,0,0,0-5.582,5.623,5.623,0,0,0-3.494-.961h-4.605v8.418h-1.6Zm6.188-2.6h-2.512v-4.062h2.512a3.309,3.309,0,0,1,1.988.52,1.776,1.776,0,0,1,.684,1.5,1.806,1.806,0,0,1-.7,1.51A3.164,3.164,0,0,1,19430.67,21154.621Z" transform="translate(-19418.002 -21142)" fill="#fff"/>
</svg>
