<svg xmlns="http://www.w3.org/2000/svg" xmlns:xlink="http://www.w3.org/1999/xlink" width="40" height="40" viewBox="0 0 40 40">
  <defs>
    <linearGradient id="linear-gradient" y1="0.5" x2="1.193" y2="0.5" gradientUnits="objectBoundingBox">
      <stop offset="0" stop-color="#4b18a9"/>
      <stop offset="1" stop-color="#923bfe"/>
    </linearGradient>
  </defs>
  <g id="Сгруппировать_185" data-name="Сгруппировать 185" transform="translate(-1069 -10536)">
    <circle id="Эллипс_16" data-name="Эллипс 16" cx="20" cy="20" r="20" transform="translate(1069 10536)" fill="url(#linear-gradient)"/>
    <path id="Icon_awesome-vk" data-name="Icon awesome-vk" d="M18.9,7.428c.124-.391,0-.678-.595-.678H16.335a.845.845,0,0,0-.855.522,15.215,15.215,0,0,1-2.419,3.766c-.458.428-.668.566-.919.566-.124,0-.314-.137-.314-.528V7.428c0-.469-.14-.678-.555-.678H8.178a.463.463,0,0,0-.5.422c0,.444.708.547.782,1.8v2.713c0,.594-.114.7-.364.7-.668,0-2.292-2.294-3.255-4.919-.194-.509-.384-.716-.889-.716H1.983c-.561,0-.675.247-.675.522,0,.488.668,2.909,3.111,6.109a7.786,7.786,0,0,0,6,3.369c1.253,0,1.407-.263,1.407-.716,0-2.087-.114-2.284.515-2.284.291,0,.792.138,1.961,1.191,1.337,1.25,1.557,1.809,2.306,1.809H18.58c.561,0,.845-.263.682-.781-.374-1.091-2.9-3.334-3.017-3.484-.291-.35-.207-.506,0-.819,0,0,2.406-3.166,2.653-4.237Z" transform="translate(1078.692 10544.25)" fill="#fff"/>
  </g>
</svg>
