<svg xmlns="http://www.w3.org/2000/svg" xmlns:xlink="http://www.w3.org/1999/xlink" width="40" height="40" viewBox="0 0 40 40">
  <defs>
    <linearGradient id="linear-gradient" y1="0.5" x2="1.193" y2="0.5" gradientUnits="objectBoundingBox">
      <stop offset="0" stop-color="#4b18a9"/>
      <stop offset="1" stop-color="#923bfe"/>
    </linearGradient>
  </defs>
  <g id="Сгруппировать_187" data-name="Сгруппировать 187" transform="translate(-1196 -10537)">
    <circle id="Эллипс_18" data-name="Эллипс 18" cx="20" cy="20" r="20" transform="translate(1196 10537)" fill="url(#linear-gradient)"/>
    <path id="Icon_awesome-youtube" data-name="Icon awesome-youtube" d="M18.674,6.378a2.205,2.205,0,0,0-1.591-1.519A56.344,56.344,0,0,0,10.05,4.5a56.344,56.344,0,0,0-7.032.359A2.205,2.205,0,0,0,1.426,6.378a21.357,21.357,0,0,0-.376,4.135,21.357,21.357,0,0,0,.376,4.135,2.175,2.175,0,0,0,1.591,1.494,56.345,56.345,0,0,0,7.032.359,56.344,56.344,0,0,0,7.032-.359,2.175,2.175,0,0,0,1.591-1.494,21.357,21.357,0,0,0,.376-4.135,21.357,21.357,0,0,0-.376-4.135ZM8.209,13.05V7.975l4.7,2.538-4.7,2.538Z" transform="translate(1205.95 10546.5)" fill="#fff"/>
  </g>
</svg>
